<mxfile host="app.diagrams.net" modified="2021-10-19T07:20:20.802Z" agent="5.0 (Windows NT 10.0; Win64; x64) AppleWebKit/537.36 (KHTML, like Gecko) Chrome/94.0.4606.71 Safari/537.36" etag="jDWPcAnF0GzD5Wfes0Pa" version="15.5.1" type="github">
  <diagram id="MVuf8pNLa-BF9CEi2e3T" name="Page-1">
    <mxGraphModel dx="1038" dy="491" grid="1" gridSize="10" guides="1" tooltips="1" connect="1" arrows="1" fold="1" page="1" pageScale="1" pageWidth="827" pageHeight="1169" math="0" shadow="0">
      <root>
        <mxCell id="0" />
        <mxCell id="1" parent="0" />
        <mxCell id="bAUgaFVrUQ5Yr3my2_6d-3" value="" style="rhombus;whiteSpace=wrap;html=1;fillColor=#6a00ff;strokeColor=#3700CC;fontColor=#ffffff;" vertex="1" parent="1">
          <mxGeometry x="225" y="253.5" width="50" height="45" as="geometry" />
        </mxCell>
        <mxCell id="bAUgaFVrUQ5Yr3my2_6d-4" value="" style="rhombus;whiteSpace=wrap;html=1;fillColor=#e1d5e7;strokeColor=#9673a6;" vertex="1" parent="1">
          <mxGeometry x="250" y="231" width="50" height="45" as="geometry" />
        </mxCell>
        <mxCell id="bAUgaFVrUQ5Yr3my2_6d-5" value="" style="rhombus;whiteSpace=wrap;html=1;fillColor=#6a00ff;strokeColor=#3700CC;fontColor=#ffffff;" vertex="1" parent="1">
          <mxGeometry x="275" y="208" width="50" height="45" as="geometry" />
        </mxCell>
        <mxCell id="bAUgaFVrUQ5Yr3my2_6d-6" value="" style="rhombus;whiteSpace=wrap;html=1;fillColor=#e1d5e7;strokeColor=#9673a6;" vertex="1" parent="1">
          <mxGeometry x="300" y="186" width="50" height="45" as="geometry" />
        </mxCell>
        <mxCell id="bAUgaFVrUQ5Yr3my2_6d-7" value="" style="rhombus;whiteSpace=wrap;html=1;fillColor=#6a00ff;strokeColor=#3700CC;fontColor=#ffffff;" vertex="1" parent="1">
          <mxGeometry x="323" y="165" width="50" height="45" as="geometry" />
        </mxCell>
        <mxCell id="bAUgaFVrUQ5Yr3my2_6d-8" value="" style="rhombus;whiteSpace=wrap;html=1;fillColor=#e1d5e7;strokeColor=#9673a6;" vertex="1" parent="1">
          <mxGeometry x="348" y="143" width="50" height="45" as="geometry" />
        </mxCell>
        <mxCell id="bAUgaFVrUQ5Yr3my2_6d-9" value="" style="rhombus;whiteSpace=wrap;html=1;fillColor=#e1d5e7;strokeColor=#9673a6;" vertex="1" parent="1">
          <mxGeometry x="372" y="121" width="50" height="45" as="geometry" />
        </mxCell>
        <mxCell id="bAUgaFVrUQ5Yr3my2_6d-10" value="" style="rhombus;whiteSpace=wrap;html=1;fillColor=#e1d5e7;strokeColor=#9673a6;" vertex="1" parent="1">
          <mxGeometry x="249" y="274.5" width="50" height="45" as="geometry" />
        </mxCell>
        <mxCell id="bAUgaFVrUQ5Yr3my2_6d-11" value="" style="rhombus;whiteSpace=wrap;html=1;fillColor=#e1d5e7;strokeColor=#9673a6;" vertex="1" parent="1">
          <mxGeometry x="274" y="252" width="50" height="45" as="geometry" />
        </mxCell>
        <mxCell id="bAUgaFVrUQ5Yr3my2_6d-12" value="" style="rhombus;whiteSpace=wrap;html=1;fillColor=#e1d5e7;strokeColor=#9673a6;" vertex="1" parent="1">
          <mxGeometry x="299" y="230" width="50" height="45" as="geometry" />
        </mxCell>
        <mxCell id="bAUgaFVrUQ5Yr3my2_6d-13" value="" style="rhombus;whiteSpace=wrap;html=1;fillColor=#e1d5e7;strokeColor=#9673a6;" vertex="1" parent="1">
          <mxGeometry x="324" y="208" width="50" height="45" as="geometry" />
        </mxCell>
        <mxCell id="bAUgaFVrUQ5Yr3my2_6d-14" value="" style="rhombus;whiteSpace=wrap;html=1;fillColor=#e1d5e7;strokeColor=#9673a6;" vertex="1" parent="1">
          <mxGeometry x="347" y="187" width="50" height="45" as="geometry" />
        </mxCell>
        <mxCell id="bAUgaFVrUQ5Yr3my2_6d-15" value="" style="rhombus;whiteSpace=wrap;html=1;fillColor=#e1d5e7;strokeColor=#9673a6;" vertex="1" parent="1">
          <mxGeometry x="372" y="165" width="50" height="45" as="geometry" />
        </mxCell>
        <mxCell id="bAUgaFVrUQ5Yr3my2_6d-16" value="" style="rhombus;whiteSpace=wrap;html=1;fillColor=#e1d5e7;strokeColor=#9673a6;" vertex="1" parent="1">
          <mxGeometry x="397" y="143" width="50" height="45" as="geometry" />
        </mxCell>
        <mxCell id="bAUgaFVrUQ5Yr3my2_6d-17" value="" style="rhombus;whiteSpace=wrap;html=1;fillColor=#6a00ff;strokeColor=#3700CC;fontColor=#ffffff;" vertex="1" parent="1">
          <mxGeometry x="275" y="297.5" width="50" height="45" as="geometry" />
        </mxCell>
        <mxCell id="bAUgaFVrUQ5Yr3my2_6d-18" value="" style="rhombus;whiteSpace=wrap;html=1;fillColor=#e1d5e7;strokeColor=#9673a6;" vertex="1" parent="1">
          <mxGeometry x="299" y="274" width="50" height="45" as="geometry" />
        </mxCell>
        <mxCell id="bAUgaFVrUQ5Yr3my2_6d-19" value="" style="rhombus;whiteSpace=wrap;html=1;fillColor=#6a00ff;strokeColor=#3700CC;fontColor=#ffffff;" vertex="1" parent="1">
          <mxGeometry x="324" y="252" width="50" height="45" as="geometry" />
        </mxCell>
        <mxCell id="bAUgaFVrUQ5Yr3my2_6d-20" value="" style="rhombus;whiteSpace=wrap;html=1;fillColor=#e1d5e7;strokeColor=#9673a6;" vertex="1" parent="1">
          <mxGeometry x="349" y="230" width="50" height="45" as="geometry" />
        </mxCell>
        <mxCell id="bAUgaFVrUQ5Yr3my2_6d-21" value="" style="rhombus;whiteSpace=wrap;html=1;fillColor=#6a00ff;strokeColor=#3700CC;fontColor=#ffffff;" vertex="1" parent="1">
          <mxGeometry x="372" y="209" width="50" height="45" as="geometry" />
        </mxCell>
        <mxCell id="bAUgaFVrUQ5Yr3my2_6d-22" value="" style="rhombus;whiteSpace=wrap;html=1;fillColor=#e1d5e7;strokeColor=#9673a6;" vertex="1" parent="1">
          <mxGeometry x="397" y="187" width="50" height="45" as="geometry" />
        </mxCell>
        <mxCell id="bAUgaFVrUQ5Yr3my2_6d-23" value="" style="rhombus;whiteSpace=wrap;html=1;fillColor=#e1d5e7;strokeColor=#9673a6;" vertex="1" parent="1">
          <mxGeometry x="422" y="165" width="50" height="45" as="geometry" />
        </mxCell>
        <mxCell id="bAUgaFVrUQ5Yr3my2_6d-24" value="" style="rhombus;whiteSpace=wrap;html=1;fillColor=#e1d5e7;strokeColor=#9673a6;" vertex="1" parent="1">
          <mxGeometry x="298" y="317.5" width="50" height="45" as="geometry" />
        </mxCell>
        <mxCell id="bAUgaFVrUQ5Yr3my2_6d-25" value="" style="rhombus;whiteSpace=wrap;html=1;fillColor=#e1d5e7;strokeColor=#9673a6;" vertex="1" parent="1">
          <mxGeometry x="323" y="296" width="50" height="45" as="geometry" />
        </mxCell>
        <mxCell id="bAUgaFVrUQ5Yr3my2_6d-26" value="" style="rhombus;whiteSpace=wrap;html=1;fillColor=#e1d5e7;strokeColor=#9673a6;" vertex="1" parent="1">
          <mxGeometry x="348" y="274" width="50" height="45" as="geometry" />
        </mxCell>
        <mxCell id="bAUgaFVrUQ5Yr3my2_6d-27" value="" style="rhombus;whiteSpace=wrap;html=1;fillColor=#e1d5e7;strokeColor=#9673a6;" vertex="1" parent="1">
          <mxGeometry x="373" y="252" width="50" height="45" as="geometry" />
        </mxCell>
        <mxCell id="bAUgaFVrUQ5Yr3my2_6d-28" value="" style="rhombus;whiteSpace=wrap;html=1;fillColor=#e1d5e7;strokeColor=#9673a6;" vertex="1" parent="1">
          <mxGeometry x="396" y="231" width="50" height="45" as="geometry" />
        </mxCell>
        <mxCell id="bAUgaFVrUQ5Yr3my2_6d-29" value="" style="rhombus;whiteSpace=wrap;html=1;fillColor=#e1d5e7;strokeColor=#9673a6;" vertex="1" parent="1">
          <mxGeometry x="421" y="209" width="50" height="45" as="geometry" />
        </mxCell>
        <mxCell id="bAUgaFVrUQ5Yr3my2_6d-30" value="" style="rhombus;whiteSpace=wrap;html=1;fillColor=#e1d5e7;strokeColor=#9673a6;" vertex="1" parent="1">
          <mxGeometry x="446" y="187" width="50" height="45" as="geometry" />
        </mxCell>
        <mxCell id="bAUgaFVrUQ5Yr3my2_6d-31" value="" style="rhombus;whiteSpace=wrap;html=1;fillColor=#6a00ff;strokeColor=#3700CC;fontColor=#ffffff;" vertex="1" parent="1">
          <mxGeometry x="323" y="340.25" width="50" height="45" as="geometry" />
        </mxCell>
        <mxCell id="bAUgaFVrUQ5Yr3my2_6d-32" value="" style="rhombus;whiteSpace=wrap;html=1;fillColor=#e1d5e7;strokeColor=#9673a6;" vertex="1" parent="1">
          <mxGeometry x="348" y="317.75" width="50" height="45" as="geometry" />
        </mxCell>
        <mxCell id="bAUgaFVrUQ5Yr3my2_6d-33" value="" style="rhombus;whiteSpace=wrap;html=1;fillColor=#6a00ff;strokeColor=#3700CC;fontColor=#ffffff;" vertex="1" parent="1">
          <mxGeometry x="373" y="295.75" width="50" height="45" as="geometry" />
        </mxCell>
        <mxCell id="bAUgaFVrUQ5Yr3my2_6d-34" value="" style="rhombus;whiteSpace=wrap;html=1;fillColor=#e1d5e7;strokeColor=#9673a6;" vertex="1" parent="1">
          <mxGeometry x="398" y="273.75" width="50" height="45" as="geometry" />
        </mxCell>
        <mxCell id="bAUgaFVrUQ5Yr3my2_6d-35" value="" style="rhombus;whiteSpace=wrap;html=1;fillColor=#6a00ff;strokeColor=#3700CC;fontColor=#ffffff;" vertex="1" parent="1">
          <mxGeometry x="421" y="252.75" width="50" height="45" as="geometry" />
        </mxCell>
        <mxCell id="bAUgaFVrUQ5Yr3my2_6d-36" value="" style="rhombus;whiteSpace=wrap;html=1;fillColor=#e1d5e7;strokeColor=#9673a6;" vertex="1" parent="1">
          <mxGeometry x="446" y="230.75" width="50" height="45" as="geometry" />
        </mxCell>
        <mxCell id="bAUgaFVrUQ5Yr3my2_6d-37" value="" style="rhombus;whiteSpace=wrap;html=1;fillColor=#e1d5e7;strokeColor=#9673a6;" vertex="1" parent="1">
          <mxGeometry x="471" y="209.75" width="50" height="45" as="geometry" />
        </mxCell>
        <mxCell id="bAUgaFVrUQ5Yr3my2_6d-38" value="" style="rhombus;whiteSpace=wrap;html=1;fillColor=#e1d5e7;strokeColor=#9673a6;" vertex="1" parent="1">
          <mxGeometry x="347" y="362.25" width="50" height="45" as="geometry" />
        </mxCell>
        <mxCell id="bAUgaFVrUQ5Yr3my2_6d-39" value="" style="rhombus;whiteSpace=wrap;html=1;fillColor=#e1d5e7;strokeColor=#9673a6;" vertex="1" parent="1">
          <mxGeometry x="372" y="339.75" width="50" height="45" as="geometry" />
        </mxCell>
        <mxCell id="bAUgaFVrUQ5Yr3my2_6d-40" value="" style="rhombus;whiteSpace=wrap;html=1;fillColor=#e1d5e7;strokeColor=#9673a6;" vertex="1" parent="1">
          <mxGeometry x="397" y="317.75" width="50" height="45" as="geometry" />
        </mxCell>
        <mxCell id="bAUgaFVrUQ5Yr3my2_6d-41" value="" style="rhombus;whiteSpace=wrap;html=1;fillColor=#e1d5e7;strokeColor=#9673a6;" vertex="1" parent="1">
          <mxGeometry x="422" y="295.75" width="50" height="45" as="geometry" />
        </mxCell>
        <mxCell id="bAUgaFVrUQ5Yr3my2_6d-42" value="" style="rhombus;whiteSpace=wrap;html=1;fillColor=#e1d5e7;strokeColor=#9673a6;" vertex="1" parent="1">
          <mxGeometry x="445" y="274.75" width="50" height="45" as="geometry" />
        </mxCell>
        <mxCell id="bAUgaFVrUQ5Yr3my2_6d-43" value="" style="rhombus;whiteSpace=wrap;html=1;fillColor=#e1d5e7;strokeColor=#9673a6;" vertex="1" parent="1">
          <mxGeometry x="470" y="252.75" width="50" height="45" as="geometry" />
        </mxCell>
        <mxCell id="bAUgaFVrUQ5Yr3my2_6d-44" value="" style="rhombus;whiteSpace=wrap;html=1;fillColor=#e1d5e7;strokeColor=#9673a6;" vertex="1" parent="1">
          <mxGeometry x="494" y="230.75" width="50" height="45" as="geometry" />
        </mxCell>
        <mxCell id="bAUgaFVrUQ5Yr3my2_6d-45" value="" style="rhombus;whiteSpace=wrap;html=1;fillColor=#e1d5e7;strokeColor=#9673a6;" vertex="1" parent="1">
          <mxGeometry x="372" y="384.25" width="50" height="45" as="geometry" />
        </mxCell>
        <mxCell id="bAUgaFVrUQ5Yr3my2_6d-46" value="" style="rhombus;whiteSpace=wrap;html=1;fillColor=#e1d5e7;strokeColor=#9673a6;" vertex="1" parent="1">
          <mxGeometry x="397" y="361.75" width="50" height="45" as="geometry" />
        </mxCell>
        <mxCell id="bAUgaFVrUQ5Yr3my2_6d-47" value="" style="rhombus;whiteSpace=wrap;html=1;fillColor=#e1d5e7;strokeColor=#9673a6;" vertex="1" parent="1">
          <mxGeometry x="422" y="339.75" width="50" height="45" as="geometry" />
        </mxCell>
        <mxCell id="bAUgaFVrUQ5Yr3my2_6d-48" value="" style="rhombus;whiteSpace=wrap;html=1;fillColor=#e1d5e7;strokeColor=#9673a6;" vertex="1" parent="1">
          <mxGeometry x="447" y="317.75" width="50" height="45" as="geometry" />
        </mxCell>
        <mxCell id="bAUgaFVrUQ5Yr3my2_6d-49" value="" style="rhombus;whiteSpace=wrap;html=1;fillColor=#e1d5e7;strokeColor=#9673a6;" vertex="1" parent="1">
          <mxGeometry x="470" y="296.75" width="50" height="45" as="geometry" />
        </mxCell>
        <mxCell id="bAUgaFVrUQ5Yr3my2_6d-50" value="" style="rhombus;whiteSpace=wrap;html=1;fillColor=#e1d5e7;strokeColor=#9673a6;" vertex="1" parent="1">
          <mxGeometry x="495" y="274.75" width="50" height="45" as="geometry" />
        </mxCell>
        <mxCell id="bAUgaFVrUQ5Yr3my2_6d-51" value="" style="rhombus;whiteSpace=wrap;html=1;fillColor=#e1d5e7;strokeColor=#9673a6;" vertex="1" parent="1">
          <mxGeometry x="519" y="253.75" width="50" height="45" as="geometry" />
        </mxCell>
        <mxCell id="bAUgaFVrUQ5Yr3my2_6d-88" value="" style="rhombus;whiteSpace=wrap;html=1;fillColor=#60a917;strokeColor=#2D7600;fontColor=#ffffff;" vertex="1" parent="1">
          <mxGeometry x="260" y="54" width="50" height="45" as="geometry" />
        </mxCell>
        <mxCell id="bAUgaFVrUQ5Yr3my2_6d-89" value="" style="rhombus;whiteSpace=wrap;html=1;fillColor=#d5e8d4;strokeColor=#82b366;" vertex="1" parent="1">
          <mxGeometry x="285" y="31.5" width="50" height="45" as="geometry" />
        </mxCell>
        <mxCell id="bAUgaFVrUQ5Yr3my2_6d-91" value="" style="rhombus;whiteSpace=wrap;html=1;fillColor=#d5e8d4;strokeColor=#82b366;" vertex="1" parent="1">
          <mxGeometry x="284" y="75" width="50" height="45" as="geometry" />
        </mxCell>
        <mxCell id="bAUgaFVrUQ5Yr3my2_6d-92" value="" style="rhombus;whiteSpace=wrap;html=1;fillColor=#d5e8d4;strokeColor=#82b366;" vertex="1" parent="1">
          <mxGeometry x="309" y="52.5" width="50" height="45" as="geometry" />
        </mxCell>
        <mxCell id="bAUgaFVrUQ5Yr3my2_6d-93" value="" style="rhombus;whiteSpace=wrap;html=1;fillColor=#d5e8d4;strokeColor=#82b366;" vertex="1" parent="1">
          <mxGeometry x="334" y="30.5" width="50" height="45" as="geometry" />
        </mxCell>
        <mxCell id="bAUgaFVrUQ5Yr3my2_6d-95" value="" style="rhombus;whiteSpace=wrap;html=1;fillColor=#d5e8d4;strokeColor=#82b366;" vertex="1" parent="1">
          <mxGeometry x="334" y="74.5" width="50" height="45" as="geometry" />
        </mxCell>
        <mxCell id="bAUgaFVrUQ5Yr3my2_6d-96" value="" style="rhombus;whiteSpace=wrap;html=1;fillColor=#b1ddf0;strokeColor=#10739e;" vertex="1" parent="1">
          <mxGeometry x="359" y="52.5" width="50" height="45" as="geometry" />
        </mxCell>
        <mxCell id="bAUgaFVrUQ5Yr3my2_6d-97" value="" style="rhombus;whiteSpace=wrap;html=1;fillColor=#d5e8d4;strokeColor=#82b366;" vertex="1" parent="1">
          <mxGeometry x="309" y="97" width="50" height="45" as="geometry" />
        </mxCell>
        <mxCell id="bAUgaFVrUQ5Yr3my2_6d-98" value="" style="endArrow=none;html=1;rounded=0;entryX=0;entryY=0.5;entryDx=0;entryDy=0;exitX=0;exitY=0.5;exitDx=0;exitDy=0;" edge="1" parent="1" source="bAUgaFVrUQ5Yr3my2_6d-3" target="bAUgaFVrUQ5Yr3my2_6d-88">
          <mxGeometry width="50" height="50" relative="1" as="geometry">
            <mxPoint x="460" y="280" as="sourcePoint" />
            <mxPoint x="510" y="230" as="targetPoint" />
          </mxGeometry>
        </mxCell>
        <mxCell id="bAUgaFVrUQ5Yr3my2_6d-99" value="" style="endArrow=none;html=1;rounded=0;entryX=0;entryY=0.5;entryDx=0;entryDy=0;exitX=0;exitY=0.5;exitDx=0;exitDy=0;" edge="1" parent="1" source="bAUgaFVrUQ5Yr3my2_6d-38" target="bAUgaFVrUQ5Yr3my2_6d-91">
          <mxGeometry width="50" height="50" relative="1" as="geometry">
            <mxPoint x="460" y="280" as="sourcePoint" />
            <mxPoint x="510" y="230" as="targetPoint" />
          </mxGeometry>
        </mxCell>
        <mxCell id="bAUgaFVrUQ5Yr3my2_6d-100" value="" style="endArrow=none;html=1;rounded=0;entryX=1;entryY=1;entryDx=0;entryDy=0;exitX=0;exitY=0.5;exitDx=0;exitDy=0;" edge="1" parent="1" source="bAUgaFVrUQ5Yr3my2_6d-43" target="bAUgaFVrUQ5Yr3my2_6d-97">
          <mxGeometry width="50" height="50" relative="1" as="geometry">
            <mxPoint x="460" y="280" as="sourcePoint" />
            <mxPoint x="510" y="230" as="targetPoint" />
          </mxGeometry>
        </mxCell>
        <mxCell id="bAUgaFVrUQ5Yr3my2_6d-101" value="" style="endArrow=none;html=1;rounded=0;exitX=0;exitY=0.5;exitDx=0;exitDy=0;" edge="1" parent="1" source="bAUgaFVrUQ5Yr3my2_6d-8">
          <mxGeometry width="50" height="50" relative="1" as="geometry">
            <mxPoint x="460" y="280" as="sourcePoint" />
            <mxPoint x="340" y="140" as="targetPoint" />
          </mxGeometry>
        </mxCell>
        <mxCell id="bAUgaFVrUQ5Yr3my2_6d-102" value="" style="rhombus;whiteSpace=wrap;html=1;fillColor=#d5e8d4;strokeColor=#82b366;" vertex="1" parent="1">
          <mxGeometry x="310" y="9.5" width="50" height="45" as="geometry" />
        </mxCell>
        <mxCell id="bAUgaFVrUQ5Yr3my2_6d-103" value="" style="rhombus;whiteSpace=wrap;html=1;fillColor=#d5e8d4;strokeColor=#82b366;" vertex="1" parent="1">
          <mxGeometry x="359" y="52.5" width="50" height="45" as="geometry" />
        </mxCell>
        <mxCell id="bAUgaFVrUQ5Yr3my2_6d-104" value="" style="rhombus;whiteSpace=wrap;html=1;fillColor=#d5e8d4;strokeColor=#82b366;" vertex="1" parent="1">
          <mxGeometry x="310" y="9.5" width="50" height="45" as="geometry" />
        </mxCell>
      </root>
    </mxGraphModel>
  </diagram>
</mxfile>
